<svg width="24" height="24" viewBox="0 0 24 24" fill="none" xmlns="http://www.w3.org/2000/svg">
<path d="M18.2109 19.2703C18.5016 19.5609 18.9797 19.5609 19.2703 19.2703C19.5609 18.9797 19.5609 18.5016 19.2703 18.2109L13.0594 12L19.2703 5.78906C19.5609 5.49844 19.5609 5.02031 19.2703 4.72969C18.9797 4.43906 18.5016 4.43906 18.2109 4.72969L12 10.9406L5.78906 4.72969C5.49844 4.43906 5.02031 4.43906 4.72969 4.72969C4.43906 5.02031 4.43906 5.49844 4.72969 5.78906L10.9406 12L4.72969 18.2109C4.43906 18.5016 4.43906 18.9797 4.72969 19.2703C5.02031 19.5609 5.49844 19.5609 5.78906 19.2703L12 13.0594L18.2109 19.2703Z" fill="black"/>
</svg>
