<svg width="24" height="24" viewBox="0 0 24 24" fill="none" xmlns="http://www.w3.org/2000/svg">
<path opacity="0.5" d="M4 10.143C4 5.646 7.582 2 12 2C16.418 2 20 5.646 20 10.143C20 14.605 17.447 19.813 13.463 21.674C13.0051 21.8884 12.5056 21.9996 12 21.9996C11.4944 21.9996 10.9949 21.8884 10.537 21.674C6.553 19.812 4 14.605 4 10.144V10.143Z" stroke="#111827"/>
<path d="M14.125 12.118L15.5 13.5M14.125 12.118C14.4032 11.8389 14.6236 11.5078 14.7738 11.1436C14.924 10.7793 15.0009 10.389 15.0003 9.99505C14.9996 9.60105 14.9214 9.21104 14.77 8.84728C14.6186 8.48352 14.3971 8.15314 14.118 7.875C13.839 7.59686 13.5078 7.37641 13.1436 7.22623C12.7793 7.07606 12.3891 6.99909 11.9951 6.99974C11.6011 7.00039 11.2111 7.07864 10.8473 7.23002C10.4835 7.3814 10.1532 7.60294 9.87501 7.882C9.31329 8.44558 8.99845 9.20923 8.99976 10.0049C9.00107 10.8007 9.31843 11.5633 9.88201 12.125C10.4456 12.6867 11.2092 13.0016 12.005 13.0003C12.8007 12.9989 13.5633 12.6816 14.125 12.118Z" stroke="#111827" stroke-linecap="round"/>
</svg>
